<svg width="14" height="13" viewBox="0 0 14 13" fill="none" xmlns="http://www.w3.org/2000/svg">
<path d="M8.39453 0.757782C8.0664 0.921848 7.89323 1.18618 7.875 1.55078V3.30078H4.8125C3.44531 3.33724 2.3151 3.8112 1.42188 4.72266C0.510413 5.61589 0.0364583 6.74609 0 8.11328C0.0182292 9.13411 0.21875 9.98177 0.601562 10.6562C0.966148 11.3307 1.36719 11.8503 1.80469 12.2148C2.24219 12.5612 2.55208 12.7799 2.73438 12.8711C2.80729 12.9076 2.88021 12.9258 2.95312 12.9258C3.28125 12.8893 3.46354 12.707 3.5 12.3789C3.48177 12.1784 3.39063 12.0052 3.22656 11.8594C3.09896 11.7318 2.97136 11.5404 2.84375 11.2852C2.71614 11.0482 2.64323 10.7201 2.625 10.3008C2.64323 9.55339 2.89844 8.93359 3.39062 8.4414C3.88282 7.94921 4.50261 7.69401 5.25 7.67578H7.875V9.42578C7.89323 9.79037 8.0664 10.0547 8.39453 10.2188C8.74088 10.3646 9.05078 10.319 9.32422 10.082L13.6992 6.14453C13.8998 5.96224 14 5.74349 14 5.48828C14 5.23307 13.8998 5.01432 13.6992 4.83203L9.32422 0.894585C9.05078 0.657584 8.74088 0.611982 8.39453 0.757782Z" fill="black"/>
</svg>
